<mxfile host="app.diagrams.net" agent="Mozilla/5.0 (Macintosh; Intel Mac OS X 10_15_7) AppleWebKit/537.36 (KHTML, like Gecko) Chrome/139.0.0.0 Safari/537.36" version="28.2.0">
  <diagram name="第 1 页" id="7otY7HTp0xpznk7cTIH0">
    <mxGraphModel dx="2253" dy="800" grid="1" gridSize="10" guides="1" tooltips="1" connect="1" arrows="1" fold="1" page="1" pageScale="1" pageWidth="827" pageHeight="1169" math="0" shadow="0">
      <root>
        <mxCell id="0" />
        <mxCell id="1" parent="0" />
        <mxCell id="bvLzBzCVGuLe25IKERpG-1" value="" style="rounded=1;whiteSpace=wrap;html=1;fillColor=none;arcSize=2;" vertex="1" parent="1">
          <mxGeometry x="97" y="110" width="840" height="940" as="geometry" />
        </mxCell>
        <mxCell id="bvLzBzCVGuLe25IKERpG-2" value="&lt;font style=&quot;font-size: 38px;&quot;&gt;LayerFlow&lt;/font&gt;" style="text;html=1;align=center;verticalAlign=middle;whiteSpace=wrap;rounded=0;" vertex="1" parent="1">
          <mxGeometry x="435" y="130" width="240" height="30" as="geometry" />
        </mxCell>
        <mxCell id="bvLzBzCVGuLe25IKERpG-3" value="" style="rounded=1;whiteSpace=wrap;html=1;fillColor=default;" vertex="1" parent="1">
          <mxGeometry x="145" y="190" width="755" height="100" as="geometry" />
        </mxCell>
        <mxCell id="bvLzBzCVGuLe25IKERpG-4" value="&lt;font style=&quot;font-size: 28px;&quot;&gt;接入平台 28&lt;/font&gt;" style="text;html=1;align=center;verticalAlign=middle;whiteSpace=wrap;rounded=0;" vertex="1" parent="1">
          <mxGeometry x="1241" y="180" width="190" height="30" as="geometry" />
        </mxCell>
        <mxCell id="bvLzBzCVGuLe25IKERpG-5" value="&lt;font style=&quot;font-size: 38px;&quot;&gt;LayerFlow 36&lt;/font&gt;" style="text;html=1;align=center;verticalAlign=middle;whiteSpace=wrap;rounded=0;" vertex="1" parent="1">
          <mxGeometry x="1090" y="20" width="240" height="30" as="geometry" />
        </mxCell>
        <mxCell id="bvLzBzCVGuLe25IKERpG-6" value="&lt;font style=&quot;font-size: 28px;&quot;&gt;接入平台&lt;/font&gt;" style="text;html=1;align=center;verticalAlign=middle;whiteSpace=wrap;rounded=0;" vertex="1" parent="1">
          <mxGeometry x="492.5" y="200" width="140" height="30" as="geometry" />
        </mxCell>
        <mxCell id="bvLzBzCVGuLe25IKERpG-9" value="&lt;font style=&quot;font-size: 18px;&quot;&gt;iOS&lt;/font&gt;" style="text;html=1;align=center;verticalAlign=middle;whiteSpace=wrap;rounded=1;fillColor=default;gradientColor=none;gradientDirection=radial;glass=0;shadow=1;" vertex="1" parent="1">
          <mxGeometry x="170" y="240" width="120" height="30" as="geometry" />
        </mxCell>
        <mxCell id="bvLzBzCVGuLe25IKERpG-10" value="&lt;font style=&quot;font-size: 18px;&quot;&gt;Android&lt;/font&gt;" style="text;html=1;align=center;verticalAlign=middle;whiteSpace=wrap;rounded=1;fillColor=default;gradientColor=none;gradientDirection=radial;glass=0;shadow=1;" vertex="1" parent="1">
          <mxGeometry x="315" y="240" width="120" height="30" as="geometry" />
        </mxCell>
        <mxCell id="bvLzBzCVGuLe25IKERpG-11" value="&lt;font style=&quot;font-size: 18px;&quot;&gt;iOS&lt;/font&gt;" style="text;html=1;align=center;verticalAlign=middle;whiteSpace=wrap;rounded=1;fillColor=default;gradientColor=none;gradientDirection=radial;glass=0;shadow=1;" vertex="1" parent="1">
          <mxGeometry x="-40" y="20" width="60" height="30" as="geometry" />
        </mxCell>
        <mxCell id="bvLzBzCVGuLe25IKERpG-12" value="&lt;font style=&quot;font-size: 18px;&quot;&gt;HarmonyOS&lt;/font&gt;" style="text;html=1;align=center;verticalAlign=middle;whiteSpace=wrap;rounded=1;fillColor=default;gradientColor=none;gradientDirection=radial;glass=0;shadow=1;" vertex="1" parent="1">
          <mxGeometry x="457.5" y="240" width="130" height="30" as="geometry" />
        </mxCell>
        <mxCell id="bvLzBzCVGuLe25IKERpG-13" value="&lt;font style=&quot;font-size: 18px;&quot;&gt;Ubuntu&lt;/font&gt;" style="text;html=1;align=center;verticalAlign=middle;whiteSpace=wrap;rounded=1;fillColor=default;gradientColor=none;gradientDirection=radial;glass=0;shadow=1;" vertex="1" parent="1">
          <mxGeometry x="610" y="240" width="120" height="30" as="geometry" />
        </mxCell>
        <mxCell id="bvLzBzCVGuLe25IKERpG-14" value="&lt;font style=&quot;font-size: 18px;&quot;&gt;... ...&lt;/font&gt;" style="text;html=1;align=center;verticalAlign=middle;whiteSpace=wrap;rounded=1;fillColor=default;gradientColor=none;gradientDirection=radial;glass=0;shadow=1;" vertex="1" parent="1">
          <mxGeometry x="760" y="240" width="120" height="30" as="geometry" />
        </mxCell>
        <mxCell id="bvLzBzCVGuLe25IKERpG-16" value="" style="rounded=1;whiteSpace=wrap;html=1;fillColor=default;dashed=1;" vertex="1" parent="1">
          <mxGeometry x="145" y="360" width="755" height="100" as="geometry" />
        </mxCell>
        <mxCell id="bvLzBzCVGuLe25IKERpG-17" value="&lt;span style=&quot;font-size: 28px;&quot;&gt;桥接层&lt;/span&gt;" style="text;html=1;align=center;verticalAlign=middle;whiteSpace=wrap;rounded=0;" vertex="1" parent="1">
          <mxGeometry x="485" y="370" width="140" height="30" as="geometry" />
        </mxCell>
        <mxCell id="bvLzBzCVGuLe25IKERpG-18" value="&lt;span style=&quot;font-size: 18px;&quot;&gt;ObjectiveC&lt;/span&gt;" style="text;html=1;align=center;verticalAlign=middle;whiteSpace=wrap;rounded=1;fillColor=default;gradientColor=none;gradientDirection=radial;glass=0;shadow=1;" vertex="1" parent="1">
          <mxGeometry x="170" y="420" width="120" height="30" as="geometry" />
        </mxCell>
        <mxCell id="bvLzBzCVGuLe25IKERpG-19" value="&lt;span style=&quot;font-size: 18px;&quot;&gt;JNI&lt;/span&gt;" style="text;html=1;align=center;verticalAlign=middle;whiteSpace=wrap;rounded=1;fillColor=default;gradientColor=none;gradientDirection=radial;glass=0;shadow=1;" vertex="1" parent="1">
          <mxGeometry x="315" y="420" width="120" height="30" as="geometry" />
        </mxCell>
        <mxCell id="bvLzBzCVGuLe25IKERpG-20" value="&lt;span style=&quot;font-size: 18px;&quot;&gt;ArkTS&lt;/span&gt;" style="text;html=1;align=center;verticalAlign=middle;whiteSpace=wrap;rounded=1;fillColor=default;gradientColor=none;gradientDirection=radial;glass=0;shadow=1;" vertex="1" parent="1">
          <mxGeometry x="461.5" y="420" width="126" height="30" as="geometry" />
        </mxCell>
        <mxCell id="bvLzBzCVGuLe25IKERpG-21" value="&lt;span style=&quot;font-size: 18px;&quot;&gt;C++&lt;/span&gt;" style="text;html=1;align=center;verticalAlign=middle;whiteSpace=wrap;rounded=1;fillColor=default;gradientColor=none;gradientDirection=radial;glass=0;shadow=1;" vertex="1" parent="1">
          <mxGeometry x="605" y="420" width="125" height="30" as="geometry" />
        </mxCell>
        <mxCell id="bvLzBzCVGuLe25IKERpG-22" value="&lt;font style=&quot;font-size: 18px;&quot;&gt;... ...&lt;/font&gt;" style="text;html=1;align=center;verticalAlign=middle;whiteSpace=wrap;rounded=1;fillColor=default;gradientColor=none;gradientDirection=radial;glass=0;shadow=1;" vertex="1" parent="1">
          <mxGeometry x="760" y="420" width="120" height="30" as="geometry" />
        </mxCell>
        <mxCell id="bvLzBzCVGuLe25IKERpG-26" value="" style="endArrow=classic;html=1;rounded=0;" edge="1" parent="1">
          <mxGeometry width="50" height="50" relative="1" as="geometry">
            <mxPoint x="544.5" y="300" as="sourcePoint" />
            <mxPoint x="544.5" y="350" as="targetPoint" />
          </mxGeometry>
        </mxCell>
        <mxCell id="bvLzBzCVGuLe25IKERpG-27" value="" style="endArrow=classic;html=1;rounded=0;" edge="1" parent="1">
          <mxGeometry width="50" height="50" relative="1" as="geometry">
            <mxPoint x="564.5" y="350" as="sourcePoint" />
            <mxPoint x="564.5" y="300" as="targetPoint" />
          </mxGeometry>
        </mxCell>
        <mxCell id="bvLzBzCVGuLe25IKERpG-59" value="" style="group" vertex="1" connectable="0" parent="1">
          <mxGeometry x="145" y="560" width="760" height="310" as="geometry" />
        </mxCell>
        <mxCell id="bvLzBzCVGuLe25IKERpG-54" value="" style="group" vertex="1" connectable="0" parent="bvLzBzCVGuLe25IKERpG-59">
          <mxGeometry x="555" width="190" height="130" as="geometry" />
        </mxCell>
        <mxCell id="bvLzBzCVGuLe25IKERpG-40" value="" style="rounded=1;whiteSpace=wrap;html=1;arcSize=2;fillColor=none;shadow=1;" vertex="1" parent="bvLzBzCVGuLe25IKERpG-54">
          <mxGeometry x="15" width="175" height="130" as="geometry" />
        </mxCell>
        <mxCell id="bvLzBzCVGuLe25IKERpG-41" value="&lt;span style=&quot;font-size: 28px;&quot;&gt;Mobile&lt;/span&gt;" style="text;html=1;align=center;verticalAlign=middle;whiteSpace=wrap;rounded=0;" vertex="1" parent="bvLzBzCVGuLe25IKERpG-54">
          <mxGeometry y="10" width="140" height="30" as="geometry" />
        </mxCell>
        <mxCell id="bvLzBzCVGuLe25IKERpG-50" value="&lt;span style=&quot;font-size: 18px;&quot;&gt;初始化&lt;br&gt;构建&lt;/span&gt;" style="text;html=1;align=center;verticalAlign=middle;whiteSpace=wrap;rounded=1;fillColor=default;gradientColor=none;gradientDirection=radial;glass=0;shadow=1;" vertex="1" parent="bvLzBzCVGuLe25IKERpG-54">
          <mxGeometry x="30" y="57" width="60" height="55" as="geometry" />
        </mxCell>
        <mxCell id="bvLzBzCVGuLe25IKERpG-51" value="&lt;span style=&quot;font-size: 18px;&quot;&gt;资源&lt;br&gt;下载&lt;/span&gt;" style="text;html=1;align=center;verticalAlign=middle;whiteSpace=wrap;rounded=1;fillColor=default;gradientColor=none;gradientDirection=radial;glass=0;shadow=1;" vertex="1" parent="bvLzBzCVGuLe25IKERpG-54">
          <mxGeometry x="110" y="57" width="60" height="55" as="geometry" />
        </mxCell>
        <mxCell id="bvLzBzCVGuLe25IKERpG-55" value="" style="group" vertex="1" connectable="0" parent="bvLzBzCVGuLe25IKERpG-59">
          <mxGeometry x="570" y="170" width="175" height="130" as="geometry" />
        </mxCell>
        <mxCell id="bvLzBzCVGuLe25IKERpG-42" value="" style="rounded=1;whiteSpace=wrap;html=1;arcSize=2;fillColor=none;shadow=1;" vertex="1" parent="bvLzBzCVGuLe25IKERpG-55">
          <mxGeometry width="175" height="130" as="geometry" />
        </mxCell>
        <mxCell id="bvLzBzCVGuLe25IKERpG-43" value="&lt;span style=&quot;font-size: 28px;&quot;&gt;OpenAPI&lt;/span&gt;" style="text;html=1;align=center;verticalAlign=middle;whiteSpace=wrap;rounded=0;" vertex="1" parent="bvLzBzCVGuLe25IKERpG-55">
          <mxGeometry y="10" width="140" height="30" as="geometry" />
        </mxCell>
        <mxCell id="bvLzBzCVGuLe25IKERpG-52" value="&lt;span style=&quot;font-size: 18px;&quot;&gt;初始化&lt;br&gt;构建&lt;/span&gt;" style="text;html=1;align=center;verticalAlign=middle;whiteSpace=wrap;rounded=1;fillColor=default;gradientColor=none;gradientDirection=radial;glass=0;shadow=1;" vertex="1" parent="bvLzBzCVGuLe25IKERpG-55">
          <mxGeometry x="17.5" y="60" width="60" height="55" as="geometry" />
        </mxCell>
        <mxCell id="bvLzBzCVGuLe25IKERpG-53" value="&lt;span style=&quot;font-size: 18px;&quot;&gt;资源&lt;br&gt;下载&lt;/span&gt;" style="text;html=1;align=center;verticalAlign=middle;whiteSpace=wrap;rounded=1;fillColor=default;gradientColor=none;gradientDirection=radial;glass=0;shadow=1;" vertex="1" parent="bvLzBzCVGuLe25IKERpG-55">
          <mxGeometry x="97.5" y="60" width="60" height="55" as="geometry" />
        </mxCell>
        <mxCell id="bvLzBzCVGuLe25IKERpG-58" value="" style="group" vertex="1" connectable="0" parent="bvLzBzCVGuLe25IKERpG-59">
          <mxGeometry width="760" height="310" as="geometry" />
        </mxCell>
        <mxCell id="bvLzBzCVGuLe25IKERpG-28" value="" style="rounded=1;whiteSpace=wrap;html=1;arcSize=2;fillColor=none;shadow=1;" vertex="1" parent="bvLzBzCVGuLe25IKERpG-58">
          <mxGeometry width="555" height="300" as="geometry" />
        </mxCell>
        <mxCell id="bvLzBzCVGuLe25IKERpG-29" value="&lt;span style=&quot;font-size: 28px;&quot;&gt;Core&lt;/span&gt;" style="text;html=1;align=center;verticalAlign=middle;whiteSpace=wrap;rounded=0;" vertex="1" parent="bvLzBzCVGuLe25IKERpG-58">
          <mxGeometry x="205" y="10" width="140" height="30" as="geometry" />
        </mxCell>
        <mxCell id="bvLzBzCVGuLe25IKERpG-30" value="" style="rounded=1;whiteSpace=wrap;html=1;arcSize=10;" vertex="1" parent="bvLzBzCVGuLe25IKERpG-58">
          <mxGeometry x="20" y="50" width="515" height="230" as="geometry" />
        </mxCell>
        <mxCell id="bvLzBzCVGuLe25IKERpG-31" value="&lt;span style=&quot;font-size: 28px;&quot;&gt;插件&lt;/span&gt;" style="text;html=1;align=center;verticalAlign=middle;whiteSpace=wrap;rounded=0;" vertex="1" parent="bvLzBzCVGuLe25IKERpG-58">
          <mxGeometry x="17.5" y="75" width="75" height="30" as="geometry" />
        </mxCell>
        <mxCell id="bvLzBzCVGuLe25IKERpG-32" value="&lt;span style=&quot;font-size: 18px;&quot;&gt;初始化&lt;br&gt;构建&lt;/span&gt;" style="text;html=1;align=center;verticalAlign=middle;whiteSpace=wrap;rounded=1;fillColor=default;gradientColor=none;gradientDirection=radial;glass=0;shadow=1;fontStyle=2;fontColor=#CDA2BE;" vertex="1" parent="bvLzBzCVGuLe25IKERpG-58">
          <mxGeometry x="105" y="62.5" width="60" height="55" as="geometry" />
        </mxCell>
        <mxCell id="bvLzBzCVGuLe25IKERpG-33" value="&lt;span style=&quot;font-size: 18px;&quot;&gt;数据&lt;br&gt;解析&lt;/span&gt;" style="text;html=1;align=center;verticalAlign=middle;whiteSpace=wrap;rounded=1;fillColor=default;gradientColor=none;gradientDirection=radial;glass=0;shadow=1;" vertex="1" parent="bvLzBzCVGuLe25IKERpG-58">
          <mxGeometry x="185" y="62.5" width="60" height="55" as="geometry" />
        </mxCell>
        <mxCell id="bvLzBzCVGuLe25IKERpG-34" value="&lt;span style=&quot;font-size: 18px;&quot;&gt;资源&lt;br&gt;下载&lt;/span&gt;" style="text;html=1;align=center;verticalAlign=middle;whiteSpace=wrap;rounded=1;fillColor=default;gradientColor=none;gradientDirection=radial;glass=0;shadow=1;fontStyle=2;fontColor=#CDA2BE;" vertex="1" parent="bvLzBzCVGuLe25IKERpG-58">
          <mxGeometry x="269" y="62.5" width="60" height="55" as="geometry" />
        </mxCell>
        <mxCell id="bvLzBzCVGuLe25IKERpG-35" value="&lt;span style=&quot;font-size: 18px;&quot;&gt;效果&lt;br&gt;渲染&lt;/span&gt;" style="text;html=1;align=center;verticalAlign=middle;whiteSpace=wrap;rounded=1;fillColor=default;gradientColor=none;gradientDirection=radial;glass=0;shadow=1;" vertex="1" parent="bvLzBzCVGuLe25IKERpG-58">
          <mxGeometry x="347.5" y="62.5" width="60" height="55" as="geometry" />
        </mxCell>
        <mxCell id="bvLzBzCVGuLe25IKERpG-36" value="&lt;span style=&quot;font-size: 18px;&quot;&gt;数据&lt;br&gt;输出&lt;/span&gt;" style="text;html=1;align=center;verticalAlign=middle;whiteSpace=wrap;rounded=1;fillColor=default;gradientColor=none;gradientDirection=radial;glass=0;shadow=1;" vertex="1" parent="bvLzBzCVGuLe25IKERpG-58">
          <mxGeometry x="435" y="62.5" width="60" height="55" as="geometry" />
        </mxCell>
        <mxCell id="bvLzBzCVGuLe25IKERpG-44" value="" style="endArrow=none;html=1;rounded=0;dashed=1;" edge="1" parent="bvLzBzCVGuLe25IKERpG-58">
          <mxGeometry width="50" height="50" relative="1" as="geometry">
            <mxPoint x="527.5" y="130" as="sourcePoint" />
            <mxPoint x="27.5" y="130.5" as="targetPoint" />
          </mxGeometry>
        </mxCell>
        <mxCell id="bvLzBzCVGuLe25IKERpG-45" value="&lt;span style=&quot;font-size: 18px;&quot;&gt;插件管理&lt;br&gt;FormulaShop&lt;/span&gt;" style="text;html=1;align=center;verticalAlign=middle;whiteSpace=wrap;rounded=1;fillColor=default;gradientColor=none;gradientDirection=radial;glass=0;shadow=1;" vertex="1" parent="bvLzBzCVGuLe25IKERpG-58">
          <mxGeometry x="105" y="150" width="180" height="55" as="geometry" />
        </mxCell>
        <mxCell id="bvLzBzCVGuLe25IKERpG-46" value="&lt;span style=&quot;font-size: 18px;&quot;&gt;数据映射&lt;br&gt;Mapping Model&lt;/span&gt;" style="text;html=1;align=center;verticalAlign=middle;whiteSpace=wrap;rounded=1;fillColor=default;gradientColor=none;gradientDirection=radial;glass=0;shadow=1;" vertex="1" parent="bvLzBzCVGuLe25IKERpG-58">
          <mxGeometry x="316.25" y="150" width="182.5" height="55" as="geometry" />
        </mxCell>
        <mxCell id="bvLzBzCVGuLe25IKERpG-47" value="&lt;span style=&quot;font-size: 18px;&quot;&gt;图层管理&lt;br&gt;xxLayer&lt;/span&gt;" style="text;html=1;align=center;verticalAlign=middle;whiteSpace=wrap;rounded=1;fillColor=default;gradientColor=none;gradientDirection=radial;glass=0;shadow=1;" vertex="1" parent="bvLzBzCVGuLe25IKERpG-58">
          <mxGeometry x="105" y="220" width="180" height="55" as="geometry" />
        </mxCell>
        <mxCell id="bvLzBzCVGuLe25IKERpG-48" value="&lt;span style=&quot;font-size: 18px;&quot;&gt;效果渲染&lt;br&gt;xxProcessor&lt;/span&gt;" style="text;html=1;align=center;verticalAlign=middle;whiteSpace=wrap;rounded=1;fillColor=default;gradientColor=none;gradientDirection=radial;glass=0;shadow=1;" vertex="1" parent="bvLzBzCVGuLe25IKERpG-58">
          <mxGeometry x="317.5" y="220" width="180" height="55" as="geometry" />
        </mxCell>
        <mxCell id="bvLzBzCVGuLe25IKERpG-49" value="&lt;span style=&quot;font-size: 28px;&quot;&gt;配方&lt;br&gt;业务&lt;/span&gt;" style="text;html=1;align=center;verticalAlign=middle;whiteSpace=wrap;rounded=0;" vertex="1" parent="bvLzBzCVGuLe25IKERpG-58">
          <mxGeometry x="25" y="190" width="75" height="30" as="geometry" />
        </mxCell>
        <mxCell id="bvLzBzCVGuLe25IKERpG-60" value="" style="endArrow=classic;html=1;rounded=0;" edge="1" parent="1">
          <mxGeometry width="50" height="50" relative="1" as="geometry">
            <mxPoint x="540" y="467" as="sourcePoint" />
            <mxPoint x="540" y="517" as="targetPoint" />
          </mxGeometry>
        </mxCell>
        <mxCell id="bvLzBzCVGuLe25IKERpG-61" value="" style="endArrow=classic;html=1;rounded=0;" edge="1" parent="1">
          <mxGeometry width="50" height="50" relative="1" as="geometry">
            <mxPoint x="560" y="517" as="sourcePoint" />
            <mxPoint x="560" y="467" as="targetPoint" />
          </mxGeometry>
        </mxCell>
        <mxCell id="bvLzBzCVGuLe25IKERpG-62" value="&lt;span style=&quot;font-size: 18px;&quot;&gt;MTImageKit图像引擎&lt;/span&gt;" style="text;html=1;align=center;verticalAlign=middle;whiteSpace=wrap;rounded=1;fillColor=default;gradientColor=none;gradientDirection=radial;glass=0;shadow=1;strokeColor=default;" vertex="1" parent="1">
          <mxGeometry x="145" y="945" width="335" height="55" as="geometry" />
        </mxCell>
        <mxCell id="bvLzBzCVGuLe25IKERpG-63" value="&lt;span style=&quot;font-size: 18px;&quot;&gt;AIGC&lt;/span&gt;" style="text;html=1;align=center;verticalAlign=middle;whiteSpace=wrap;rounded=1;fillColor=default;gradientColor=none;gradientDirection=radial;glass=0;shadow=1;strokeColor=default;" vertex="1" parent="1">
          <mxGeometry x="555" y="945" width="335" height="55" as="geometry" />
        </mxCell>
        <mxCell id="bvLzBzCVGuLe25IKERpG-65" value="" style="endArrow=classic;startArrow=none;html=1;rounded=0;startFill=0;" edge="1" parent="1">
          <mxGeometry width="50" height="50" relative="1" as="geometry">
            <mxPoint x="1170" y="1109" as="sourcePoint" />
            <mxPoint x="1170" y="1169" as="targetPoint" />
          </mxGeometry>
        </mxCell>
        <mxCell id="bvLzBzCVGuLe25IKERpG-66" value="" style="endArrow=classic;html=1;rounded=0;" edge="1" parent="1">
          <mxGeometry width="50" height="50" relative="1" as="geometry">
            <mxPoint x="320" y="890" as="sourcePoint" />
            <mxPoint x="320" y="940" as="targetPoint" />
          </mxGeometry>
        </mxCell>
        <mxCell id="bvLzBzCVGuLe25IKERpG-67" value="" style="endArrow=classic;html=1;rounded=0;" edge="1" parent="1">
          <mxGeometry width="50" height="50" relative="1" as="geometry">
            <mxPoint x="722" y="890" as="sourcePoint" />
            <mxPoint x="722" y="940" as="targetPoint" />
          </mxGeometry>
        </mxCell>
        <mxCell id="bvLzBzCVGuLe25IKERpG-68" value="" style="rounded=1;whiteSpace=wrap;html=1;fillColor=none;arcSize=2;dashed=1;dashPattern=8 8;" vertex="1" parent="1">
          <mxGeometry x="128" y="540" width="780" height="340" as="geometry" />
        </mxCell>
        <mxCell id="bvLzBzCVGuLe25IKERpG-69" value="&lt;font style=&quot;font-size: 18px;&quot;&gt;iOS&lt;/font&gt;" style="text;html=1;align=center;verticalAlign=middle;whiteSpace=wrap;rounded=1;fillColor=default;gradientColor=none;gradientDirection=radial;glass=0;shadow=1;" vertex="1" parent="1">
          <mxGeometry x="-50" y="1139" width="60" height="30" as="geometry" />
        </mxCell>
        <mxCell id="bvLzBzCVGuLe25IKERpG-70" value="" style="endArrow=classic;html=1;rounded=0;" edge="1" parent="1">
          <mxGeometry width="50" height="50" relative="1" as="geometry">
            <mxPoint x="492.5" y="980" as="sourcePoint" />
            <mxPoint x="542.5" y="980" as="targetPoint" />
          </mxGeometry>
        </mxCell>
      </root>
    </mxGraphModel>
  </diagram>
</mxfile>
